<svg xmlns="http://www.w3.org/2000/svg" viewBox="0 0 512 512"><!--author: veli.ee | source: https://github.com/velijv/yeelight-icons | licence: CC-BY-NC-SA--><style>@keyframes f{0%,50%{opacity:1;filter:drop-shadow(0 1px 2px var(--accent-color,currentColor)) drop-shadow(0 0 4px var(--accent-color,currentColor))}25%,75%{opacity:0}}.fa-secondary{opacity:.4}.filament{fill:var(--accent-color,currentColor);animation:f 10s cubic-bezier(.17,.67,.43,.98) infinite}</style><path d="M215.7 75.3c0 2.9-.1 5.9 0 8.9h80.6s0-.1.1-.1V64.3c0-.6 0-1.3-.3-1.8-.2-.4-.6-.7-.9-1-1.3-1.4-2.1-3.6-.7-5.3.5-.5 1.1-.9 1.5-1.5.4-.6.5-1.3.4-2-.2-1.1-1-1.8-1.7-2.7-1.2-1.4-1.4-2.8-.2-4.3.3-.4.5-.7.8-1.1.1.1.3-.1.3-.2.6-1 1-2.2.8-3.4 0-.3-.1-.5-.3-.7-.1-.2-.3-.3-.5-.4-2.5-1.6-2-4.7-.1-6.4l.8-.8c.3-.9.1-1.9-.2-2.9-.1-.3-.2-.6-.4-.8-.2-.2-.4-.3-.6-.5-1.5-1.1-1.2-2.9-1.1-4.6 0-.3 0-.7-.3-.8-.2-.1-.4-.1-.5-.1-.3-.1-.6-.4-.8-.7-2.7-3.4-4.7-5.8-9-6.9-4.4-1.1-8.9-1.1-13.4-1.1-7.5 0-15-.3-22.4-.3-4.2 0-8.9-.2-13.4.4-3.3.5-6.5 1.4-9.3 3.3-1.5 1-2.4 2.4-3.7 3.7-1.8 1.7-6.8 2-4.3 6 .5.8 1.3 1.4 1.8 2.2 1.3 2.2-.7 3.9-2 5.3-.4 1.2-.2 2.6.4 3.7.4.7.9 1.2 1.4 1.7.1.1.3.3.4.3.5 2.2-.9 2.5-1.7 4.2l-.3.6c-.4.9-.8 1.9-.6 2.8.3 1.2 1.6 1.9 2.2 3 .6 1.1.6 2.4-.2 3.4-.4.5-1 .8-1.4 1.3-.3.3-.5.7-.6 1-.1.4-.1.8-.1 1.1-.1 1-.1 2.2.5 3 .2.3.5.6.7.9 1.5 1.9.1 3.8-1.1 5.2-1.4 2.1-.6 6.1-.6 8.2zm2.6-35.8v-.4.4zm2.1 5.6c-.1.1-.1.2-.1.4 0-.2 0-.3.1-.4zm-2.2 20.7s.1 0 0 0c.1 0 0 0 0 0zm71.6 177.7h-12.5l.3-7.3-5.5-.2-.3 7.5h-1.2v-89h38L306 95.7H205.9l-2.6 58.8h37.5v89h-1.7l-.3-7.5-5.5.2.3 7.3h-11.2l-.4-5.9-4.1.4 12 162.4 4.1-.4-.3-3.7h6.1l.1 2.6 5.5-.2-.1-2.4h20.3l-.1 2.4 5.5.2.1-2.6h7.4l-.3 3.7 4.1.4 12-162.4-4.1-.4-.4 5.9zM243 154.4h25.5v89h-5.7V241h-2.2v2.5h-8.2V241H250v2.5h-7v-89.1zm17.6 239.7h-8.3V245.7h8.2v148.4zm-27 0-11-148.4h11.1l6 148.4h-6.1zm5.6-148.4H250v148.4h-4.8l-6-148.4zm23.6 148.4V245.7h9l-6 148.4h-3zm15.9 0h-7.5l6-148.4h12.4l-10.9 148.4z" class="fa-primary"/><path d="M263.8 245.7h8l-6 148.4h-2.9V245.7h.9zM247.4 14.3c7.5 0 15 .3 22.4.3 2 0 4.1 0 6.1.1-.2-.2-.3-.4-.5-.6-.9-1.4-1.7-2.9-2.3-4.5-.5-1.4-.8-3.1-1.5-4.4-.8-1.4-2.2-1.8-3.6-2.4-2.1-1-4.4-1.8-6.7-2.2-4.3-.9-8.7-.3-13 .8-2.5.6-5.3 1.4-7.2 3.2-1.7 1.6-1.6 4.2-2.5 6.3-.6 1.3-1.2 2.6-2 3.8 3.7-.6 7.4-.4 10.8-.4zm50.1 69.9H215l-9 11.4h100.1l-8.6-11.4zm-7.8 161.5h-12.4l-6 148.4h7.5l10.9-148.4zm-35.9 0h-1.5v148.4h8.3V245.7h-6.8zm107.1 151.2-54.7-242.5h-35.5v89h1.2l.3-7.5 5.5.2-.3 7.3h12.5l.4-5.9 4.1.4-12 162.4-4.1-.4.3-3.7h-7.4l-.2 2.8-5.5-.2.1-2.4h-20.3l.1 2.4-5.4.2-.1-2.6h-6.1l.3 3.7-4.1.4-12-162.4 4.1-.4.4 5.9h11.2l-.3-7.3 5.5-.2.3 7.5h1.7v-89h-35l-54.7 242.5c-2.3 6.9-3.5 14.2-3.5 21.6 0 42.5 38.8 77.8 89.7 84.8 2.7 5.8 13.1 8.8 18.4 8.7 5.3.2 15.6-2.9 18.4-8.6 51.2-6.9 90.2-42.2 90.2-84.8 0-7.7-1.2-15-3.5-21.9zM222.6 245.7l11 148.4h6.2l-6-148.4h-11.2zm20.4-2.2h7V241h2.2v2.5h8.2V241h2.2v2.5h5.7v-89H243v89zm7 150.6V245.7h-10.8l6 148.4h4.8z" class="fa-secondary"/><g id="fullcolor"><path d="M236.6 236h5.5v162.9h-5.5z" class="filament" transform="matrix(.9992 -.04065 .04065 .9992 -12.7065 9.993)"/><path d="M268.9 236h5.5v162.9h-5.5z" class="filament" transform="matrix(-.9992 -.04065 .04065 -.9992 530.0582 645.7007)"/><path d="m278.3 400 4.1.4L294.3 238l-4-.4zm-44.3 0-4.1.4-12-162.4 4.1-.4z" class="filament"/></g></svg>