<svg xmlns="http://www.w3.org/2000/svg" viewBox="0 0 600 512">
	<style>
		.fa-secondary{opacity:0.4;}
	</style>
	<path d="M349.4 333.2v-61.4c0-.4.1-.9.1-1.3 3.2-30.6 24.9-56.5 38.2-83.2 8.2-16.3 10.4-31.7 10.4-49.1 0-10.8-2.5-25.4 12.4-26 15 0 29.9-.8 44.9-1H477c15 .3 30 1 44.9 1 14.8.5 12.4 15.1 12.4 26 0 17.4 2.3 32.8 10.4 49.1 13.3 26.7 35 52.7 38.2 83.2v109.2c0-.1-10.3.5-22.9 1.3 0 0-53.4 3.3-93.8 3.3s-93.8-3.3-93.8-3.3c-11.8-.7-21.6-1.3-22.8-1.3 0-12.3 0-24.6-.1-36.9 0-3.2 0-6.4-.1-9.6zm61.2-291.7h-.2v59.1h111.4V41.5h-.2c-1.2-5.4-8-10.4-18.2-13.8h-74.8c-10.1 3.4-16.8 8.3-18 13.8zM287.2 310.1c-7.9-4.8-16.4-9-25.2-12.8-9.6-4.2-19.5-7.9-29.4-11.6-11.8-4.4-23.6-8.6-34.7-13.3.6.3 1.2.7 1.8 1 1 .6 2 1.2 2.9 1.9l-.3-.1c23.3 17.3 30.9 62.7 16.5 110.1-13.8 45.3-43.3 77.9-71.3 81.8h.2l-2.7.3c-.8.1-1.5.1-2.3.1 15.1 2.1 31.1 5.4 47.1 8.3 17 3 34.1 5.4 50.4 5.1 23.2-.5 35-13.1 55.5-15.9 13-1.8 28.5 1.2 43.1 3.8V362.1c-25-10-27.8-37.5-51.6-52zm-119.4-47.7z" class="fa-primary"/>
	<path d="M466.1 384.3c-40.4 0-93.8-3.3-93.8-3.3-12.6-.8-22.9-1.4-22.9-1.3v85.2c0 12.6 9.7 26.3 21.6 30.5 0 0 47.4 16.6 95 16.6s95-16.6 95-16.6c11.9-4.2 21.6-17.9 21.6-30.5v-85.2s-10.3.6-22.9 1.3c.2 0-53.2 3.3-93.6 3.3zM446.7 3.2c3-1.9 10.5-3.2 19.4-3.2 8.9 0 16.4 1.4 19.4 3.2.9 10 6.2 18.8 13.8 24.4h-66.4c7.6-5.6 12.9-14.4 13.8-24.4zM218.8 385.3c-16.5 54.2-55.7 90.3-87.5 80.6l-79.1-24.1c-31.8-9.7-44.3-61.5-27.7-115.7 16.5-54.2 55.7-90.3 87.5-80.6l79.1 24.1c31.8 9.6 44.2 61.4 27.7 115.7z" class="fa-secondary"/>
</svg>