<svg xmlns="http://www.w3.org/2000/svg" x="0px" y="0px" viewBox="0 0 512 512">
<!--! 
by Veli (Veromann) - https://github.com/velijv - https://twitter.com/velivelilev - https://veli.ee 
Copyright 2022 Veli. 
-->		 
<defs>
<style type="text/css">
	.logo{fill:#DF2B2F;}
	.fa-secondary{fill-opacity:0.2;}
</style>
</defs>
<path id="fullcolor" class="logo" d="M265.3,443.7v6.7l16-6.1v-20.2l-25.3,9.6l-0.1-0.1l-25.2-9.6v20.2l16,6.1v-6.7l-9.6-3.7v-6.7
	l15.8,6v13.4h6.3v-13.4l15.8-6v6.7L265.3,443.7z"/>
<path id="fa-secondary" class="fa-secondary" d="M220,145.6c0-0.9,0.7-1.5,1.5-1.5s1.5,0.7,1.5,1.5c0,0.8-0.7,1.5-1.5,1.5
	S220,146.4,220,145.6z M210.7,158.2c0.9,0,1.5-0.7,1.5-1.5c0-0.8-0.7-1.5-1.5-1.5s-1.5,0.7-1.5,1.5
	C209.2,157.5,209.9,158.2,210.7,158.2z M229.3,150.1c0.8,0,1.5-0.7,1.5-1.5c0-0.8-0.7-1.5-1.5-1.5c-0.8,0-1.5,0.7-1.5,1.5
	C227.8,149.4,228.5,150.1,229.3,150.1z M215.6,156.7c0-3.2,2.7-5.9,5.9-5.9s5.9,2.6,5.9,5.9c0,3.2-2.7,5.9-5.9,5.9
	S215.6,160,215.6,156.7z M221.5,161.1c2.5,0,4.5-2,4.5-4.5c-0.1-2.4-2.1-4.4-4.5-4.4V161.1z M213.7,150.1c0.8,0,1.5-0.7,1.5-1.5
	s-0.7-1.5-1.5-1.5s-1.5,0.7-1.5,1.5C212.2,149.4,212.9,150.1,213.7,150.1z M229.3,166.2c0.8,0,1.5-0.6,1.5-1.5
	c0-0.8-0.7-1.5-1.5-1.5c-0.8,0-1.5,0.7-1.5,1.5C227.8,165.5,228.5,166.2,229.3,166.2z M232.2,158.2c0.8,0,1.5-0.7,1.5-1.5
	c0-0.8-0.7-1.5-1.5-1.5s-1.5,0.7-1.5,1.5C230.7,157.5,231.4,158.2,232.2,158.2z M211.7,98.1c-1-1-1.5-2.5-1.5-4.2
	c0-1.9,0.5-3.4,1.5-4.5c1-1.1,2.4-1.7,4.1-1.7c1.6,0,2.9,0.5,3.9,1.6c1,1,1.5,2.5,1.5,4.2c0,1.9-0.5,3.4-1.5,4.5s-2.3,1.7-4,1.7
	S212.7,99.2,211.7,98.1z M211.7,93.7c0,1.5,0.4,2.6,1.1,3.5c0.7,0.9,1.7,1.3,2.9,1.3c1.3,0,2.3-0.4,3-1.2s1.1-2,1.1-3.5
	c0-1.6-0.4-2.8-1.1-3.6c-0.7-0.9-1.7-1.3-2.9-1.3c-1.2,0-2.2,0.4-3,1.3C212.1,91.1,211.7,92.2,211.7,93.7z M224.1,91.1
	c0-0.8,0-1.3-0.1-1.6c0.1,0.3,0.2,0.5,0.4,0.7l6,9.3h1.7V87.9h-1.4v8.2c0,0.8,0,1.4,0.1,1.7c-0.1-0.1-0.2-0.4-0.5-0.8l-5.8-9.1h-1.8
	v11.6h1.4V91.1z M221.5,166.3c-0.8,0-1.5,0.7-1.5,1.5s0.7,1.5,1.5,1.5s1.5-0.7,1.5-1.5S222.3,166.3,221.5,166.3z M213.7,163.2
	c-0.8,0-1.5,0.7-1.5,1.5c0,0.8,0.7,1.5,1.5,1.5s1.5-0.6,1.5-1.5C215.2,163.9,214.5,163.2,213.7,163.2z M333.2,77.8v356.4
	c0,42.6-34.6,77.2-77.2,77.2c-42.6,0-77.2-34.6-77.2-77.2V77.8c0-42.6,34.6-77.2,77.2-77.2C298.6,0.6,333.2,35.2,333.2,77.8z
	 M197.3,93.5c0,13.3,10.9,24.2,24.2,24.2s24.2-10.8,24.2-24.2s-10.9-24.2-24.2-24.2S197.3,80.2,197.3,93.5z M197.3,156.7
	c0,13.3,10.9,24.2,24.2,24.2s24.2-10.8,24.2-24.2c0-13.4-10.9-24.2-24.2-24.2S197.3,143.4,197.3,156.7z M221.5,242.2
	c13.3,0,24.2-10.8,24.2-24.2c0-13.4-10.9-24.2-24.2-24.2s-24.2,10.9-24.2,24.2S208.2,242.2,221.5,242.2z M281.3,424.3l-25.3,9.6
	l-0.1-0.1l-25.2-9.6v20.2l16,6.1v-6.7l-9.6-3.7v-6.7l15.8,6v13.4h6.3v-13.4l15.8-6v6.7l-9.7,3.7v6.7l16-6.1V424.3z M314.3,156.7
	c0-13.4-10.9-24.3-24.2-24.2c-13.3,0-24.2,10.8-24.2,24.2V218c0,13.3,10.8,24.2,24.2,24.2c13.3,0,24.2-10.8,24.2-24.2V156.7z
	 M314.4,93.5c0-13.4-10.9-24.2-24.2-24.2c-13.3,0-24.2,10.9-24.2,24.2s10.9,24.2,24.2,24.2C303.5,117.7,314.4,106.9,314.4,93.5z
	 M296.5,99.5h1.4v-5.2h4.2v-1.2h-4.2v-4h4.5v-1.2h-5.9V99.5z M291,147.8h-1.8v5.6h-5.6v1.9h5.6v5.6h1.8v-5.6h5.6v-1.9H291V147.8z
	 M286.2,89.3c1,1,1.5,2.5,1.5,4.2c0,1.9-0.5,3.4-1.5,4.5s-2.3,1.7-4,1.7s-3-0.5-4-1.6c-1-1-1.5-2.5-1.5-4.2c0-1.9,0.5-3.4,1.5-4.5
	c1-1.1,2.4-1.7,4.1-1.7C283.9,87.7,285.2,88.2,286.2,89.3z M286.3,93.8c0-1.5-0.4-2.7-1.1-3.6s-1.7-1.3-2.9-1.3s-2.2,0.4-3,1.3
	c-0.8,0.9-1.1,2-1.1,3.5s0.4,2.6,1.1,3.5c0.7,0.9,1.7,1.3,2.9,1.3c1.3,0,2.3-0.4,3-1.2S286.3,95.3,286.3,93.8z M286.2,218.8h7.6V217
	h-7.6V218.8z M289.2,99.5h1.4v-5.2h4.2v-1.2h-4.2v-4h4.5v-1.2h-5.9V99.5z M221.9,220.3c-0.1,0.3-0.3,0.8-0.6,1.4
	c-0.1-0.3-0.3-0.8-0.5-1.4l-3.6-8.1h-1.8v11.6h1.3V216c0-1.1,0-1.8-0.1-2.3c0.1,0.5,0.2,0.9,0.3,1.2l4,8.9h0.7l4-8.9
	c0.1-0.2,0.2-0.6,0.3-1.1c-0.1,0.9-0.1,1.6-0.1,2.3v7.8h1.4v-11.7h-1.7L221.9,220.3z"/>
<path id="fa-primary" class="fa-primary" d="M218.7,90.2c0.7,0.8,1.1,2,1.1,3.6c0,1.5-0.4,2.7-1.1,3.5c-0.7,0.8-1.7,1.2-3,1.2c-1.2,0-2.2-0.4-2.9-1.3
	s-1.1-2-1.1-3.5s0.4-2.6,1.1-3.5c0.8-0.9,1.8-1.3,3-1.3C217,88.9,218,89.3,218.7,90.2z M245.7,93.5c0,13.4-10.9,24.2-24.2,24.2
	s-24.2-10.9-24.2-24.2s10.9-24.2,24.2-24.2S245.7,80.1,245.7,93.5z M221.2,93.5c0-1.7-0.5-3.2-1.5-4.2c-1-1.1-2.3-1.6-3.9-1.6
	c-1.7,0-3.1,0.6-4.1,1.7s-1.5,2.6-1.5,4.5c0,1.7,0.5,3.2,1.5,4.2c1,1.1,2.3,1.6,4,1.6s3-0.6,4-1.7S221.2,95.4,221.2,93.5z
	 M232.1,87.9h-1.4v8.2c0,0.8,0,1.4,0.1,1.7l0,0c-0.1-0.1-0.2-0.4-0.5-0.8l-5.8-9.1h-1.8v11.6h1.4v-8.4c0-0.8,0-1.3-0.1-1.6l0,0
	c0.1,0.3,0.2,0.5,0.4,0.7l6,9.3h1.7L232.1,87.9L232.1,87.9z M245.7,218c0,13.4-10.9,24.2-24.2,24.2s-24.2-10.9-24.2-24.2
	s10.9-24.2,24.2-24.2S245.7,204.6,245.7,218z M227.2,212.2h-1.7l-3.6,8.1c-0.1,0.3-0.3,0.8-0.6,1.4l0,0c-0.1-0.3-0.3-0.8-0.5-1.4
	l-3.6-8.1h-1.8v11.6h1.3V216c0-1.1,0-1.8-0.1-2.3l0,0c0.1,0.5,0.2,0.9,0.3,1.2l4,8.9h0.7l4-8.9c0.1-0.2,0.2-0.6,0.3-1.1l0,0
	c-0.1,0.9-0.1,1.6-0.1,2.3v7.8h1.4L227.2,212.2L227.2,212.2z M282.3,88.9c-1.2,0-2.2,0.4-3,1.3s-1.1,2-1.1,3.5s0.4,2.6,1.1,3.5
	s1.7,1.3,2.9,1.3c1.3,0,2.3-0.4,3-1.2c0.7-0.8,1.1-2,1.1-3.5s-0.4-2.7-1.1-3.6C284.5,89.3,283.5,88.9,282.3,88.9z M314.4,93.5
	c0,13.4-10.9,24.2-24.2,24.2S266,106.8,266,93.5s10.9-24.2,24.2-24.2S314.4,80.1,314.4,93.5z M287.7,93.5c0-1.7-0.5-3.2-1.5-4.2
	c-1-1.1-2.3-1.6-3.9-1.6c-1.7,0-3.1,0.6-4.1,1.7s-1.5,2.6-1.5,4.5c0,1.7,0.5,3.2,1.5,4.2c1,1.1,2.3,1.6,4,1.6s3-0.6,4-1.7
	S287.7,95.4,287.7,93.5z M295.1,87.9h-5.9v11.6h1.4v-5.2h4.2v-1.2h-4.2v-4h4.5V87.9z M302.4,87.9h-5.9v11.6h1.4v-5.2h4.2v-1.2h-4.2
	v-4h4.5V87.9z M314.3,156.7V218c0,13.4-10.9,24.2-24.2,24.2l0,0c-13.4,0-24.2-10.9-24.2-24.2v-61.3c0-13.4,10.9-24.2,24.2-24.2l0,0
	C303.4,132.4,314.3,143.3,314.3,156.7z M293.8,217h-7.6v1.8h7.6V217z M296.6,153.4H291v-5.6h-1.8v5.6h-5.6v1.9h5.6v5.6h1.8v-5.6h5.6
	V153.4z M221.5,152.2v8.9c2.5,0,4.5-2,4.5-4.5C225.9,154.2,223.9,152.2,221.5,152.2z M245.7,156.7c0,13.4-10.9,24.2-24.2,24.2
	s-24.2-10.9-24.2-24.2s10.9-24.2,24.2-24.2S245.7,143.3,245.7,156.7z M227.8,148.6c0,0.8,0.7,1.5,1.5,1.5s1.5-0.7,1.5-1.5
	s-0.7-1.5-1.5-1.5S227.8,147.8,227.8,148.6z M220,145.6c0,0.8,0.7,1.5,1.5,1.5s1.5-0.7,1.5-1.5s-0.7-1.5-1.5-1.5
	S220,144.7,220,145.6z M212.2,156.7c0-0.8-0.7-1.5-1.5-1.5s-1.5,0.7-1.5,1.5s0.7,1.5,1.5,1.5C211.6,158.2,212.2,157.5,212.2,156.7z
	 M215.2,164.7c0-0.8-0.7-1.5-1.5-1.5s-1.5,0.7-1.5,1.5s0.7,1.5,1.5,1.5S215.2,165.6,215.2,164.7z M215.2,148.6
	c0-0.8-0.7-1.5-1.5-1.5s-1.5,0.7-1.5,1.5s0.7,1.5,1.5,1.5S215.2,149.4,215.2,148.6z M223,167.8c0-0.8-0.7-1.5-1.5-1.5
	s-1.5,0.7-1.5,1.5s0.7,1.5,1.5,1.5S223,168.6,223,167.8z M227.4,156.7c0-3.3-2.7-5.9-5.9-5.9s-5.9,2.7-5.9,5.9
	c0,3.3,2.7,5.9,5.9,5.9S227.4,159.9,227.4,156.7z M230.8,164.7c0-0.8-0.7-1.5-1.5-1.5s-1.5,0.7-1.5,1.5s0.7,1.5,1.5,1.5
	S230.8,165.6,230.8,164.7z M233.7,156.7c0-0.8-0.7-1.5-1.5-1.5s-1.5,0.7-1.5,1.5s0.7,1.5,1.5,1.5S233.7,157.5,233.7,156.7z"/>
</svg>
