<svg xmlns="http://www.w3.org/2000/svg" viewBox="0 0 512 512"><!--author: veli.ee | source: https://github.com/velijv/yeelight-icons | licence: CC-BY-NC-SA--><style>.fa-secondary{opacity:.4}</style><path d="M239.3 182.2v2.4c0 .2-.1.3-.3.3h-13.7c-.2 0-.3-.1-.3-.3v-20.4c0-.2.1-.3.3-.3h13.3c.2 0 .3.1.3.3v2.4c0 .2-.1.3-.3.3h-10.2v5.7h9.6c.2 0 .3.1.3.3v2.4c0 .2-.1.3-.3.3h-9.6v6.4h10.7c.1-.1.2 0 .2.2zm23.9-18.2s-.1 0 0 0h-2.8c-.2 0-.3.1-.3.3v20.4c0 .2.1.3.3.3h2.8c.2 0 .3-.1.3-.3v-20.4c-.1-.2-.2-.3-.3-.3zm-59.3 0h-3.3c-.1 0-.2 0-.2.1l-6.1 8.9-6.1-8.9c-.1-.1-.1-.1-.2-.1h-3.5c-.2 0-.3.1-.3.3 0 .1 0 .1.1.2l8.3 11.5v8.7c0 .2.1.3.3.3h2.8c.2 0 .3-.1.3-.3V176l8.3-11.5v-.2c-.1-.2-.2-.3-.4-.3zm16.8 17.9H210v-6.4h9.6c.2 0 .3-.1.3-.3v-2.4c0-.2-.1-.3-.3-.3H210V167h10.2c.2 0 .3-.1.3-.3v-2.4c0-.2-.1-.3-.3-.3H207c-.2 0-.3.1-.3.3v20.4c0 .2.1.3.3.3h13.7c.2 0 .3-.1.3-.3v-2.4c0-.3-.1-.4-.3-.4zm35.1 0h-9.1v-17.7c0-.2-.1-.3-.3-.3h-2.8c-.2 0-.3.1-.3.3v20.4c0 .2.1.3.3.3h12.2c.2 0 .3-.1.3-.3v-2.4c0-.1-.2-.3-.3-.3zm71.8-17.9h-16.4c-.2 0-.3.1-.3.3v2.4c0 .2.1.3.3.3h6.5v17.7c0 .2.1.3.3.3h2.8c.2 0 .3-.1.3-.3V167h6.5c.2 0 .3-.1.3-.3v-2.4c-.1-.2-.2-.3-.3-.3zm-42.8 9h-6.1c-.2 0-.3.1-.3.3v2.7c0 .2.1.3.3.3h4.2v5c-1.5.6-3.1.9-4.7.8h-.2c-1.8 0-3.5-.6-4.9-1.8-1.6-1.5-2.5-3.7-2.4-5.9v-.3c-.1-4 3.1-7.4 7.2-7.5h.5c1.6 0 3.3.5 4.6 1.5.1.1.3.1.4 0l1.8-2.1c.1-.1.1-.3 0-.4-1.9-1.4-4.3-2.2-6.7-2.2h-.2c-5.8-.1-10.6 4.5-10.8 10.3v.8c-.1 3.2 1.3 6.2 3.6 8.4 1.9 1.7 4.4 2.6 7 2.6h.2c1.6 0 3.1-.2 4.7-.6.9-.3 1.8-.7 2.7-1.2.4-.3.7-.7.6-1.2v-8c-.1-.8-.7-1.5-1.5-1.5zm21.8-9h-2.8c-.2 0-.3.1-.3.3v8.3h-9.9v-8.3c0-.2-.1-.3-.3-.3h-2.8c-.2 0-.3.1-.3.3v20.4c0 .2.1.3.3.3h2.8c.2 0 .3-.1.3-.3v-9.1h9.9v9.1c0 .2.1.3.3.3h2.8c.2 0 .3-.1.3-.3v-20.4c0-.2-.2-.3-.3-.3zM256 13.2C140.1 13.2 46.1 38 46.1 68.7s94 55.5 209.9 55.5 209.9-24.9 209.9-55.5-94-55.5-209.9-55.5zm97.6 413.2c-1.1 28.4-44.4 51.3-97.6 51.3s-96.6-22.9-97.6-51.3c1.1 20.1 44.4 36.3 97.6 36.3s96.6-16.2 97.6-36.3z" class="fa-primary"/><path d="M198.7 483.4v-15.7c7.2 2.8 15.2 5.1 23.8 6.8v8.9c0 2-5.3 3.6-11.9 3.6-6.5 0-11.9-1.6-11.9-3.6zm102.7 3.6c6.6 0 11.9-1.6 11.9-3.6v-15.7c-7.2 2.8-15.2 5.1-23.8 6.8v8.9c0 2 5.3 3.6 11.9 3.6zm-90.8 2.2c-10.5 0-19.1-2.6-19.1-5.7v22.8c0 3.2 8.5 5.7 19.1 5.7 10.5 0 19.1-2.6 19.1-5.7v-22.8c0 3.1-8.5 5.7-19.1 5.7zm90.8 0c-10.5 0-19.1-2.6-19.1-5.7v22.8c0 3.2 8.5 5.7 19.1 5.7 10.5 0 19.1-2.6 19.1-5.7v-22.8c0 3.1-8.6 5.7-19.1 5.7zM479.1 68.7c0 37.9-99.9 68.7-223.1 68.7S32.9 106.6 32.9 68.7 132.8 0 256 0s223.1 30.8 223.1 68.7zm-13.2 0c0-30.7-94-55.5-209.9-55.5S46.1 38 46.1 68.7s94 55.5 209.9 55.5 209.9-24.8 209.9-55.5zM353.7 425.6v-.3 1.1c-.1-.3 0-.5 0-.8zm-195.4 0v.8-1.1.3zm289.1-307.9c-12.6 67.5-47.2 124.3-93.8 157.9v150.9c-1.1 20.1-44.4 36.3-97.6 36.3s-96.6-16.2-97.6-36.3v-151c-46.6-33.6-81.2-90.4-93.8-157.9 39 20 110.1 33.4 191.4 33.4s152.4-13.3 191.4-33.3zm-136.5 49c0 .2.1.3.3.3h6.5v17.7c0 .2.1.3.3.3h2.8c.2 0 .3-.1.3-.3V167h6.5c.2 0 .3-.1.3-.3v-2.4c0-.2-.1-.3-.3-.3h-16.4c-.2 0-.3.1-.3.3v2.4zm-20.6 18c0 .2.1.3.3.3h2.8c.2 0 .3-.1.3-.3v-9.1h9.9v9.1c0 .2.1.3.3.3h2.8c.2 0 .3-.1.3-.3v-20.4c0-.2-.1-.3-.3-.3h-2.8c-.2 0-.3.1-.3.3v8.3h-9.9v-8.3c0-.2-.1-.3-.3-.3h-2.8c-.2 0-.3.1-.3.3v20.4zm-22.9-10.2c-.1 3.2 1.3 6.2 3.6 8.4 1.9 1.7 4.4 2.6 7 2.6h.2c1.6 0 3.1-.2 4.7-.6.9-.3 1.8-.7 2.7-1.2.4-.3.7-.7.6-1.2v-8c0-.8-.6-1.4-1.4-1.4h-6.1c-.2 0-.3.1-.3.3v2.7c0 .2.1.3.3.3h4.2v5c-1.5.6-3.1.9-4.7.8h-.2c-1.8 0-3.5-.6-4.9-1.8-1.6-1.5-2.5-3.7-2.4-5.9v-.3c-.1-4 3.1-7.4 7.2-7.5h.5c1.6 0 3.3.5 4.6 1.5.1.1.3.1.4 0l1.8-2.1c.1-.1.1-.3 0-.4-1.9-1.4-4.3-2.2-6.7-2.2h-.2c-5.8-.1-10.6 4.5-10.8 10.3v.7zm-7.3 10.2c0 .2.1.3.3.3h2.8c.2 0 .3-.1.3-.3v-20.4c0-.2-.1-.3-.3-.3h-2.8c-.2 0-.3.1-.3.3v20.4zm-16.8 0c0 .2.1.3.3.3h12.2c.2 0 .3-.1.3-.3v-2.4c0-.2-.1-.3-.3-.3h-9.1v-17.7c0-.2-.1-.3-.3-.3h-2.8c-.2 0-.3.1-.3.3v20.4zm-18.3-.1c0 .2.1.3.3.3H239c.2 0 .3-.1.3-.3v-2.4c0-.2-.1-.3-.3-.3h-10.7v-6.4h9.6c.2 0 .3-.1.3-.3v-2.4c0-.2-.1-.3-.3-.3h-9.6V167h10.2c.2 0 .3-.1.3-.3v-2.4c0-.2-.1-.3-.3-.3h-13.3c-.2 0-.3.1-.3.3v20.3zm-18.3 0c0 .2.1.3.3.3h13.7c.2 0 .3-.1.3-.3v-2.4c0-.2-.1-.3-.3-.3H210v-6.4h9.6c.2 0 .3-.1.3-.3v-2.4c0-.2-.1-.3-.3-.3H210V167h10.2c.2 0 .3-.1.3-.3v-2.4c0-.2-.1-.3-.3-.3H207c-.2 0-.3.1-.3.3v20.3zm-22.5-20.3c0 .1 0 .1.1.2l8.3 11.5v8.7c0 .2.1.3.3.3h2.8c.2 0 .3-.1.3-.3V176l8.3-11.5v-.2c0-.2-.1-.3-.3-.3h-3.3c-.1 0-.2 0-.2.1l-6.1 8.9-6.1-8.9c-.1-.1-.1-.1-.2-.1h-3.5c-.3 0-.4.1-.4.3z" class="fa-secondary"/></svg>