<svg xmlns="http://www.w3.org/2000/svg" viewBox="0 0 512 512"><!--author: veli.ee | source: https://github.com/velijv/yeelight-icons | licence: CC-BY-NC-SA--><style>.fa-secondary{opacity:.4}</style><path d="M372.7 178.8v61.4c0 .4-.1.9-.1 1.3-3.2 30.6-24.9 56.5-38.2 83.2-8.2 16.3-10.4 31.7-10.4 49.1 0 10.8 2.5 25.4-12.4 26-15 0-29.9.8-44.9 1h-21.6c-15-.3-30-1-44.9-1-14.8-.5-12.4-15.1-12.4-26 0-17.4-2.3-32.8-10.4-49.1-13.3-26.7-35-52.7-38.2-83.2V132.3c0 .1 10.3-.5 22.9-1.3 0 0 53.4-3.3 93.8-3.3s93.8 3.3 93.8 3.3c11.8.7 21.6 1.3 22.8 1.3 0 12.3 0 24.6.1 36.9 0 3.2 0 6.4.1 9.6zm-61.2 291.7h.2v-59.1H200.3v59.1h.2c1.2 5.4 8 10.4 18.2 13.8h74.8c10.1-3.4 16.8-8.3 18-13.8z" class="fa-primary"/><path d="M256 127.7c40.4 0 93.8 3.3 93.8 3.3 12.6.8 22.9 1.4 22.9 1.3V47.1c0-12.6-9.7-26.3-21.6-30.5 0 0-47.4-16.6-95-16.6s-95 16.6-95 16.6c-11.9 4.2-21.6 17.9-21.6 30.5v85.2s10.3-.6 22.9-1.3c-.2 0 53.2-3.3 93.6-3.3zm19.4 381.1c-3 1.9-10.5 3.2-19.4 3.2-8.9 0-16.4-1.4-19.4-3.2-.9-10-6.2-18.8-13.8-24.4h66.4c-7.7 5.6-12.9 14.4-13.8 24.4z" class="fa-secondary"/></svg>