<svg xmlns="http://www.w3.org/2000/svg" xmlns:xlink="http://www.w3.org/1999/xlink" viewBox="0 0 300 256"><defs><path id="re" d="M62.8 5.4h216.6v124.5H62.8z" class="y3"/></defs><!--author: veli.ee | source: https://github.com/velijv/yeelight-icons | licence: CC-BY-NC-SA--><style>.y0{opacity:.4;enable-background:new}.y1{fill:#fff}.y2{fill:#df2b2f}.y3{fill:url(#g1_);filter:url(#om)}.y4{mask:url(#gm)}</style><path id="secondary" d="M44.3 24.8c-4.4 1.4-8.9 2.9-13.8 2.9-1.7 0-3.6-.2-5.4-.6C20 25.7 15 21.9 13 17.4c-1.5-3.2-1.5-6.6-.1-9.7 2.5-5.2 7.1-6.3 11.9-6.3v2.7c-4.1 0-7.7.9-9.5 4.8-1.2 2.5-1.1 5 .1 7.5 1.7 3.7 6.1 7 10.4 8.1 6.2 1.6 11.7-.2 17.7-2.2 4.4-1.4 9.1-2.9 14-2.9v2.7c-4.5-.1-8.7 1.3-13.2 2.7zm15.8-14.1h5.3V5.4h-5.3v5.3zm67.1 231.7v.2c0 2.5-20.5 4.4-45.7 4.4s-45.7-2.1-45.7-4.4v-.2s0-.1.1-.1c1-1.5 9.3-2.7 21.3-3.5v3.8c0 .5 2.4 1.1 5.3 1.1s5.3-.4 5.3-1.1v-4.3c4.2-.1 8.8-.2 13.5-.2 24.1 0 44 1.8 45.5 4.2.4 0 .4 0 .4.1zm-21.3-2.5c0 .5-2.4 1.1-5.3 1.1s-5.3-.4-5.3-1.1v2.7c0 .5 2.4 1.1 5.3 1.1s5.3-.4 5.3-1.1v-2.7z" class="y0"/><path id="primary" d="M36.1 242.3c-.1.1-.1.2-.1.3v-.3h.1zm45.5 4.7c-25.2 0-45.7-2.1-45.7-4.4v8.7h.1c0 .1-.1.1-.1.2 0 2.5 20.5 4.4 45.7 4.4s45.7-2.1 45.7-4.4c0-.1 0-.1-.1-.2h.1v-8.7c-.1 2.4-20.5 4.4-45.7 4.4zm45.6-4.5v-.3h-.1c.1.2.1.2.1.3zm-26.7 1.1c2.9 0 5.3-.4 5.3-1.1v-2.7c0 .5-2.4 1.1-5.3 1.1s-5.3-.4-5.3-1.1v2.7c0 .6 2.3 1.1 5.3 1.1zM24.9 0v5.3h264.2V0H24.9zm43.2 242.5V10.7H57.4v231.8c0 .5 2.4 1.1 5.3 1.1s5.4-.5 5.4-1.1z"/><ellipse id="button" cx="100.5" cy="239.9" class="y1" rx="5.3" ry="1.1"/><path id="wire" d="M57.4 19.4c-4.9 0-9.4 1.4-14 2.9-6 1.9-11.6 3.8-17.7 2.2-4.4-1.1-8.7-4.4-10.4-8.1-1.2-2.5-1.2-5-.1-7.5C17 5 20.6 4.1 24.7 4.1V1.4c-4.8 0-9.5 1.1-11.9 6.3-1.5 3.1-1.4 6.5.1 9.7C15 21.8 19.8 25.6 25 27c1.8.4 3.7.6 5.4.6 4.8 0 9.3-1.5 13.8-2.9 4.4-1.4 8.7-2.8 13.1-2.8v-2.5z" class="y2"/><defs><filter id="om" width="216.6" height="124.5" x="62.8" y="5.4" filterUnits="userSpaceOnUse"><feColorMatrix values="1 0 0 0 0 0 1 0 0 0 0 0 1 0 0 0 0 0 1 0"/></filter></defs><mask id="gm" width="216.6" height="124.5" x="62.8" y="5.4" maskUnits="userSpaceOnUse"><linearGradient id="g1_" x1="-103.4892" x2="-102.4063" y1="386.1429" y2="386.1429" gradientTransform="matrix(0 115 200 0 -77057.5156 11906.6777)" gradientUnits="userSpaceOnUse"><stop offset="0" style="yop-color:#000"/><stop offset="1" style="yop-color:#000;stop-opacity:0"/></linearGradient><use xlink:href="#re" class="y3"/></mask><use xlink:href="#re" id="light" class="y4"/></svg>