<svg xmlns="http://www.w3.org/2000/svg" viewBox="0 0 512 512"><!--author: veli.ee | source: https://github.com/velijv/yeelight-icons | licence: CC-BY-NC-SA--><style>.fa-secondary{opacity:.4}</style><path d="M170.8 345.9V44.1c.1 0 .1.1.2.1 5.3 3.7 12.5 6.9 21.5 9.6 17.1 5.1 39.6 7.9 63.5 7.9 23.8 0 46.4-2.8 63.5-7.9 9-2.7 16.2-5.9 21.5-9.6.1 0 .1-.1.2-.1v300.1c0-4.4-38.1-8-85.2-8s-85.2 3.6-85.2 8v1.7zm0 19.8v49.1h170.4v-49.1H170.8zM256 50.4c47.1 0 85.2-11.3 85.2-25.2 0-2.6-1.3-5.1-3.8-7.5-.8-.8-1.8-1.6-2.9-2.3-2.2-1.5-4.8-2.9-7.9-4.3-3.1-1.3-6.5-2.6-10.4-3.7-1.9-.6-3.9-1.1-6.1-1.6s-4.3-1-6.6-1.5c-1.1-.2-2.3-.4-3.5-.7C287.3 1.3 272.2 0 256 0s-31.3 1.3-44.2 3.6c-1.2.2-2.3.4-3.5.7-2.3.5-4.5.9-6.6 1.5-2.1.5-4.1 1.1-6.1 1.6-3.9 1.1-7.3 2.4-10.4 3.7-3.1 1.3-5.7 2.8-7.9 4.3-1.1.8-2 1.5-2.9 2.3-2.5 2.4-3.8 4.9-3.8 7.5.2 13.9 38.3 25.2 85.4 25.2z" class="fa-secondary"/><path d="M200.4 25.2c0-7.6 24.9-13.8 55.6-13.8 30.7 0 55.6 6.2 55.6 13.8 0 7.6-24.9 13.8-55.6 13.8-30.7 0-55.6-6.2-55.6-13.8zM256 390.6c-27.7 0-53.8-1.6-73.5-4.6-4.3-.6-8.2-1.3-11.7-2.1v109.5c0 10.2 38.1 18.5 85.2 18.5s85.2-8.3 85.2-18.5V383.9c-3.5.7-7.4 1.4-11.7 2.1-19.7 2.9-45.8 4.6-73.5 4.6zm85.2-46.3v28c-18.1 4.1-49.5 6.9-85.2 6.9s-67.1-2.7-85.2-6.9v-28c0-4 31.8-7.4 73.1-7.9.5-1.1 1.2-2.2 2-3.2H241V156.9h30.1v176.3h-4.9c.8.9 1.5 2 2 3.2 41.2.5 73 3.8 73 7.9zm-19.2 0c0-2.3-22.7-4.2-52.9-4.6.1.7.2 1.4.2 2.1 0 1.4-.2 2.8-.6 4-4.1.1-8.4.1-12.7.1-4.3 0-8.6 0-12.7-.1-.4-1.3-.6-2.6-.6-4 0-.7.1-1.4.2-2.1-30.2.4-52.9 2.3-52.9 4.6 0 2.6 29.6 4.7 66 4.7s66-2.1 66-4.7z" class="fa-primary"/></svg>