<svg xmlns="http://www.w3.org/2000/svg" viewBox="0 0 512 512"><!--author: veli.ee | source: https://github.com/velijv/yeelight-icons | licence: CC-BY-NC-SA--><style>.fa-secondary{opacity:.4}</style>
<path d="M257.9707 55c-60.22894 0-109.38478 34.936284-112.17578 78.80664h-.125v9.79297C178.12589 129.85362 215.80804 121.98633 256 121.98633c41.82896 0 80.93956 8.52128 114.26953 23.32226v-11.50195h-.125C367.35353 89.936284 318.19964 55 257.9707 55Zm-1.7539 78.80664c-95.93491 0-177.571537 44.82384-207.970706 107.42578l-46.5097659 47.5918C.62342324 289.96222 0 291.49199 0 293.08398v47.28321c0 2.452 1.470451 4.66714 3.7304688 5.61914 2.2600177.951 4.8687886.45618 6.6230472-1.25781l27.353515-26.7168c15.042885 78.49992 107.141879 138.9043 218.509769 138.9043 111.19989 0 203.18747-60.22286 218.43945-138.55079l26.99023 26.36329c1.754 1.71399 4.36305 2.20881 6.62305 1.25781 2.26-.952 3.73047-3.16714 3.73047-5.61914v-47.28321c0-1.59199-.62333-3.12176-1.73633-4.25976l-45.66211-46.72461C434.53859 179.04467 352.5937 133.80664 256.2168 133.80664Zm1.7539 47.28516c92.48891 0 167.46485 52.925 167.46485 118.21093 0 65.28594-74.97594 118.21094-167.46485 118.21094-92.4879 0-167.464841-52.925-167.464841-118.21094 0-65.28593 74.976941-118.21093 167.464841-118.21093zM38.576172 268.56836c-1.986798 8.71499-3.021484 17.66498-3.021484 26.79297 0 2.508.07988 5.00438.234374 7.48437l-23.597656 23.04883v-30.32617zm435.408208.57226 25.82617 26.42774v30.32617l-23.19336-22.65234c.171-2.611.25781-5.23886.25781-7.88086 0-8.92799-.98863-17.68671-2.89062-26.22071z" class="fa-primary"/>
<path d="M257.97 417.513c92.489 0 167.465-52.925 167.465-118.211s-74.976-118.21-167.465-118.21c-92.488 0-167.4649 52.924-167.4649 118.21S165.482 417.513 257.97 417.513z" class="fa-secondary"/>
</svg>