<svg xmlns="http://www.w3.org/2000/svg" viewBox="0 0 512 512"><!--author: veli.ee | source: https://github.com/velijv/yeelight-icons | licence: CC-BY-NC-SA--><defs><radialGradient id="g"><stop offset=".5" stop-color="currentColor" stop-opacity=".4"/><stop offset="1" stop-color="currentColor"/></radialGradient><style>.fa-secondary{opacity:.4}stop{stop-color:currentColor}.fa-primary,.fa-secondary{fill:url(#g)}</style><mask><circle cx="256" cy="256" r="256" fill="url('#g')"/></mask></defs><path d="M436.5 83.8C387.8 35.1 323.1 8.3 254.3 8.3S120.8 35.1 72.1 83.8C25.6 130.3 0 192.1 0 257.7c0 65.7 25.6 127.4 72.1 173.9s108.3 72.1 173.9 72.1 127.4-25.6 173.9-72.1c42.9-42.9 67.2-99.6 68.6-160V492c0 6.5 5.3 11.7 11.7 11.7S512 498.5 512 492V266c0-68.8-26.8-133.5-75.5-182.2zM506.1 492c0 3.2-2.6 5.9-5.9 5.9-3.2 0-5.9-2.6-5.9-5.9V266c0-64.1-25-124.4-70.4-169.7-45.4-45.4-105.7-70.4-169.7-70.4s-124.4 25-169.7 70.4c-43.2 43.2-66.9 100.5-66.9 161.5s23.8 118.3 66.9 161.5c89 89 233.9 89 322.9 0 41-41.1 63.6-95.5 63.6-153.3s-22.6-112.2-63.5-153.2c-40.9-40.9-95.3-63.5-153.2-63.5s-112.2 22.6-153.2 63.5C62.4 151.6 41 203 41 257.7s21.3 106.2 60.1 144.9c79.9 79.9 209.9 79.9 289.8 0 75.3-75.3 75.3-197.9 0-273.2-36.5-36.5-85-56.6-136.6-56.6s-100.1 20.1-136.6 56.6c-34.3 34.3-53.2 79.9-53.2 128.3 0 48.4 18.9 94 53.2 128.3 70.8 70.8 185.9 70.8 256.7 0 32.1-32.1 49.8-74.7 49.8-120.1 0-45.3-17.7-88-49.8-120.1C342.3 113.7 299.7 96 254.3 96s-88 17.7-120.1 49.8c-29.9 29.9-46.3 69.6-46.3 111.8s16.5 81.9 46.3 111.8c29.9 29.9 69.6 46.3 111.8 46.3s81.9-16.5 111.8-46.3c57.1-57.1 57.1-149.9 0-207-27.7-27.7-64.4-42.9-103.5-42.9-39.1 0-75.8 15.2-103.5 42.9-25.5 25.5-39.5 59.3-39.5 95.2 0 35.9 14 69.8 39.5 95.2 52.5 52.5 137.9 52.5 190.4 0 25.4-25.4 38.4-60.6 35.7-96.5-.3-3.2 2.2-6.1 5.4-6.3 3.2-.2 6.1 2.2 6.3 5.4 3 39.3-11.2 77.8-39.1 105.7C321.8 388.8 285.1 404 246 404c-39.1 0-75.8-15.2-103.5-42.9-27.7-27.7-42.9-64.4-42.9-103.5 0-39.1 15.2-75.8 42.9-103.5 29.9-29.9 69.6-46.3 111.8-46.3s81.9 16.5 111.8 46.3c29.9 29.9 46.3 69.6 46.3 111.8s-16.5 81.9-46.3 111.8c-32.1 32.1-74.7 49.8-120.1 49.8-45.3 0-88-17.7-120.1-49.8-32.1-32.1-49.8-74.7-49.8-120.1 0-45.3 17.7-88 49.8-120.1 34.3-34.3 79.9-53.2 128.4-53.2s94 18.9 128.4 53.2c34.3 34.5 53.1 80 53.1 128.5s-18.9 94-53.2 128.4c-36.5 36.5-85 56.6-136.6 56.6-51.6 0-100.1-20.1-136.6-56.6s-56.6-85.1-56.6-136.6c0-51.6 20.1-100.1 56.6-136.6C148.1 82.3 199.6 61 254.3 61s106.2 21.3 144.9 60.1c38.7 38.7 60.1 90.2 60.1 144.9S438 372.2 399.2 410.9c-41 41-95.4 63.5-153.2 63.5-57.8 0-112.2-22.6-153.2-63.5-41-41-63.5-95.4-63.5-153.2 0-57.8 22.6-112.2 63.5-153.2C136 61.4 193.3 37.6 254.3 37.6s118.3 23.8 161.5 66.9C459 147.7 482.7 205 482.7 266s-23.8 118.3-66.9 161.5c-45.4 45.4-105.7 70.4-169.8 70.4-64.1 0-124.4-25-169.8-70.4S5.9 321.8 5.9 257.7c0-64.1 25-124.4 70.4-169.8 47.6-47.6 110.8-73.8 178-73.8s130.4 26.2 178 73.8c47.6 47.6 73.8 110.8 73.8 178V492zM371 256.9c2.6 34.2-9.7 67.6-34 91.9-50.2 50.2-131.9 50.2-182.1 0-24.3-24.3-37.8-56.7-37.8-91.1s13.4-66.7 37.8-91.1c26.6-26.6 61.8-41.2 99.3-41.2s72.8 14.6 99.3 41.2c24.1 24.1 37.6 54.8 40.5 86.4-1.4-5.4-6.5-9.2-12.3-8.8-6.3.6-11.2 6.2-10.7 12.7z" class="fa-secondary"/><path d="M506.1 266v226c0 3.2-2.6 5.9-5.9 5.9-3.2 0-5.9-2.6-5.9-5.9V266c0-64.1-25-124.4-70.4-169.7-45.4-45.4-105.7-70.4-169.7-70.4s-124.4 25-169.7 70.4c-43.2 43.2-66.9 100.5-66.9 161.5s23.8 118.3 66.9 161.5c89 89 233.9 89 322.9 0 41-41.1 63.6-95.5 63.6-153.3s-22.6-112.2-63.5-153.2c-40.9-40.9-95.3-63.5-153.2-63.5s-112.2 22.6-153.2 63.5C62.4 151.6 41 203 41 257.7s21.3 106.2 60.1 144.9c79.9 79.9 209.9 79.9 289.8 0 75.3-75.3 75.3-197.9 0-273.2-36.5-36.5-85-56.6-136.6-56.6s-100.1 20.1-136.6 56.6c-34.3 34.3-53.2 79.9-53.2 128.3 0 48.4 18.9 94 53.2 128.3 70.8 70.8 185.9 70.8 256.7 0 32.1-32.1 49.8-74.7 49.8-120.1 0-45.3-17.7-88-49.8-120.1C342.3 113.7 299.7 96 254.3 96s-88 17.7-120.1 49.8c-29.9 29.9-46.3 69.6-46.3 111.8s16.5 81.9 46.3 111.8c29.9 29.9 69.6 46.3 111.8 46.3s81.9-16.5 111.8-46.3c57.1-57.1 57.1-149.9 0-207-27.7-27.7-64.4-42.9-103.5-42.9-39.1 0-75.8 15.2-103.5 42.9-25.5 25.5-39.5 59.3-39.5 95.2 0 35.9 14 69.8 39.5 95.2 52.5 52.5 137.9 52.5 190.4 0 25.4-25.4 38.4-60.6 35.7-96.5-.3-3.2 2.2-6.1 5.4-6.3 3.2-.2 6.1 2.2 6.3 5.4 3 39.3-11.2 77.8-39.1 105.7C321.8 388.8 285.1 404 246 404c-39.1 0-75.8-15.2-103.5-42.9-27.7-27.7-42.9-64.4-42.9-103.5 0-39.1 15.2-75.8 42.9-103.5 29.9-29.9 69.6-46.3 111.8-46.3s81.9 16.5 111.8 46.3c29.9 29.9 46.3 69.6 46.3 111.8s-16.5 81.9-46.3 111.8c-32.1 32.1-74.7 49.8-120.1 49.8-45.3 0-88-17.7-120.1-49.8-32.1-32.1-49.8-74.7-49.8-120.1 0-45.3 17.7-88 49.8-120.1 34.3-34.3 79.9-53.2 128.4-53.2s94 18.9 128.4 53.2c34.3 34.5 53.1 80 53.1 128.5s-18.9 94-53.2 128.4c-36.5 36.5-85 56.6-136.6 56.6-51.6 0-100.1-20.1-136.6-56.6s-56.6-85.1-56.6-136.6c0-51.6 20.1-100.1 56.6-136.6C148.1 82.3 199.6 61 254.3 61s106.2 21.3 144.9 60.1c38.7 38.7 60.1 90.2 60.1 144.9S438 372.2 399.2 410.9c-41 41-95.4 63.5-153.2 63.5-57.8 0-112.2-22.6-153.2-63.5-41-41-63.5-95.4-63.5-153.2 0-57.8 22.6-112.2 63.5-153.2C136 61.4 193.3 37.6 254.3 37.6s118.3 23.8 161.5 66.9C459 147.7 482.7 205 482.7 266s-23.8 118.3-66.9 161.5c-45.4 45.4-105.7 70.4-169.8 70.4-64.1 0-124.4-25-169.8-70.4S5.9 321.8 5.9 257.7c0-64.1 25-124.4 70.4-169.8 47.6-47.6 110.8-73.8 178-73.8s130.4 26.2 178 73.8c47.6 47.7 73.8 110.9 73.8 178.1z" class="fa-primary"/></svg>