<svg  xmlns="http://www.w3.org/2000/svg" viewBox="0 0 549 118.3"><style>.st2{fill:#5a5b5b}</style><switch><g><path d="M110.1 118.3H8.2c-4.5 0-8.2-3.7-8.2-8.2V8.2C0 3.7 3.7 0 8.2 0H110c4.5 0 8.2 3.7 8.2 8.2V110c.1 4.6-3.6 8.3-8.1 8.3z" style="fill:#df2b2f"/><path style="fill:#fff" d="M75.4 68.4v11.8l28-10.7V34.1L59.1 51l-.1-.1-44.1-16.8v35.4l28 10.7V68.4L26 61.9V50.2l27.6 10.5v23.5h11.1V60.7l27.6-10.5v11.7z"/><g><path class="st2" d="m189.2 34.7-12.7 21.9-12.7-21.9h-10.6l18.3 30.9v17.2h10.1V65.6l18.3-30.9zM371 34.7h10.1v48.1H371zM428.6 75.5l-2.4.2c-2.4.2-4.7.4-6.9.4-7.2 0-10.4-2.5-10.4-8V50.5c0-5.5 3-7.8 10.4-8 7.1-.2 13.6.6 17.3 1.2v-7.2c-5.2-1.2-11.9-1.6-16.4-1.6-19.2 0-21.5 8.2-21.5 14.4v20c0 9.5 6.9 14.4 20.4 14.4 6.3 0 13.2-.8 18.9-2.1V60.7h-9.5v14.8zM549 34.7h-36.9v7.4h13.4v40.7h10.1V42.1H549zM496.4 82.8V34.7h-10.1v20.1h-22.1V34.7h-10.1v48.1h10.1V62.2h22.1v20.6zM321.2 34.7v48.1H355v-7.3h-23.7V34.7zM251.8 42.1v-7.4h-34.4v48.1h34.4v-7.3h-24.4V62.1h22.5v-7.4h-22.5V42.1zM303.7 42.1v-7.4h-34.4v48.1h34.4v-7.3h-24.3V62.1h22.5v-7.4h-22.5V42.1z"/></g></g></switch></svg>