<svg xmlns="http://www.w3.org/2000/svg" viewBox="0 0 512 512"><!--author: veli.ee | source: https://github.com/velijv/yeelight-icons | licence: CC-BY-NC-SA--><style>.fa-secondary{opacity:.4}</style>
<path d="M258,55c-60.2,0-109.4,34.9-112.2,78.8h-0.1v9.8C178.1,129.9,215.8,122,256,122c41.8,0,80.9,8.5,114.3,23.3v-11.5h-0.1
  C367.4,89.9,318.2,55,258,55z M256.2,133.8c-95.9,0-177.6,44.8-208,107.4L1.7,288.8C0.6,290,0,291.5,0,293.1v47.3
  c0,2.5,1.5,4.7,3.7,5.6c2.3,1,4.9,0.5,6.6-1.3L37.7,318c15,78.5,107.1,138.9,218.5,138.9c111.2,0,203.2-60.2,218.4-138.6l27,26.4
  c1.8,1.7,4.4,2.2,6.6,1.3c2.3-1,3.7-3.2,3.7-5.6v-47.3c0-1.6-0.6-3.1-1.7-4.3l-45.7-46.7C434.5,179,352.6,133.8,256.2,133.8z
   M258,181.1c92.5,0,167.5,52.9,167.5,118.2s-75,118.2-167.5,118.2c-92.5,0-167.5-52.9-167.5-118.2S165.5,181.1,258,181.1z
   M38.6,268.6c-2,8.7-3,17.7-3,26.8c0,2.5,0.1,5,0.2,7.5l-23.6,23v-30.3L38.6,268.6z M474,269.1l25.8,26.4v30.3l-23.2-22.7
  c0.2-2.6,0.3-5.2,0.3-7.9C476.9,286.4,475.9,277.7,474,269.1z" class="fa-secondary"/>
<path d="M258,417.5c92.5,0,167.5-52.9,167.5-118.2s-75-118.2-167.5-118.2c-92.5,0-167.5,52.9-167.5,118.2
  S165.5,417.5,258,417.5z" class="fa-primary"/>
</svg>