<?xml version="1.0" encoding="utf-8"?>
<!-- Generator: Adobe Illustrator 23.0.1, SVG Export Plug-In . SVG Version: 6.00 Build 0)  -->
<svg version="1.1" id="Layer_1" xmlns="http://www.w3.org/2000/svg" xmlns:xlink="http://www.w3.org/1999/xlink" x="0px" y="0px"
	 viewBox="0 0 300 256" style="enable-background:new 0 0 300 256;" xml:space="preserve">
<style type="text/css">
	.st0{opacity:0.4;enable-background:new    ;}
	.st1{fill:#FFFFFF;}
	.st2{fill:#DF2B2F;}
	.st3{fill:url(#SVGID_1_);filter:url(#Adobe_OpacityMaskFilter);}
	.st4{mask:url(#gradient-mask_1_);}
</style>
<path id="secondary" class="st0" d="M44.3,24.8c-4.4,1.4-8.9,2.9-13.8,2.9c-1.7,0-3.6-0.2-5.4-0.6C20,25.7,15,21.9,13,17.4
	c-1.5-3.2-1.5-6.6-0.1-9.7c2.5-5.2,7.1-6.3,11.9-6.3v2.7c-4.1,0-7.7,0.9-9.5,4.8c-1.2,2.5-1.1,5,0.1,7.5c1.7,3.7,6.1,7,10.4,8.1
	c6.2,1.6,11.7-0.2,17.7-2.2c4.4-1.4,9.1-2.9,14-2.9v2.7C53,22,48.8,23.4,44.3,24.8z M60.1,10.7h5.3V5.4h-5.3V10.7z M127.2,242.4
	c0,0.1,0,0.1,0,0.2c0,2.5-20.5,4.4-45.7,4.4s-45.7-2.1-45.7-4.4c0-0.1,0-0.1,0-0.2c0,0,0-0.1,0.1-0.1c1-1.5,9.3-2.7,21.3-3.5v3.8
	c0,0.5,2.4,1.1,5.3,1.1c2.9,0,5.3-0.4,5.3-1.1v-4.3c4.2-0.1,8.8-0.2,13.5-0.2c24.1,0,44,1.8,45.5,4.2
	C127.2,242.3,127.2,242.3,127.2,242.4z M105.9,239.9c0,0.5-2.4,1.1-5.3,1.1c-2.9,0-5.3-0.4-5.3-1.1v2.7l0,0l0,0
	c0,0.5,2.4,1.1,5.3,1.1c2.9,0,5.3-0.4,5.3-1.1l0,0l0,0V239.9z"/>
<path id="primary" d="M36.1,242.3c-0.1,0.1-0.1,0.2-0.1,0.3v-0.3H36.1z M81.6,247c-25.2,0-45.7-2.1-45.7-4.4v8.7H36
	c0,0.1-0.1,0.1-0.1,0.2c0,2.5,20.5,4.4,45.7,4.4s45.7-2.1,45.7-4.4c0-0.1,0-0.1-0.1-0.2h0.1v-8.7C127.2,245,106.8,247,81.6,247z
	 M127.2,242.5v-0.3h-0.1C127.2,242.4,127.2,242.4,127.2,242.5z M100.5,243.6c2.9,0,5.3-0.4,5.3-1.1l0,0l0,0v-2.7
	c0,0.5-2.4,1.1-5.3,1.1c-2.9,0-5.3-0.4-5.3-1.1v2.7l0,0l0,0C95.2,243.1,97.5,243.6,100.5,243.6z M24.9,0v5.3h264.2V0H24.9z
	 M68.1,242.5V10.7H57.4v231.8c0,0.5,2.4,1.1,5.3,1.1C65.6,243.6,68.1,243.1,68.1,242.5z"/>
<ellipse id="button" class="st1" cx="100.5" cy="239.9" rx="5.3" ry="1.1"/>
<path id="wire" class="st2" d="M57.4,19.4c-4.9,0-9.4,1.4-14,2.9c-6,1.9-11.6,3.8-17.7,2.2c-4.4-1.1-8.7-4.4-10.4-8.1
	c-1.2-2.5-1.2-5-0.1-7.5c1.8-3.9,5.4-4.8,9.5-4.8V1.4c-4.8,0-9.5,1.1-11.9,6.3c-1.5,3.1-1.4,6.5,0.1,9.7c2.1,4.4,6.9,8.2,12.1,9.6
	c1.8,0.4,3.7,0.6,5.4,0.6c4.8,0,9.3-1.5,13.8-2.9c4.4-1.4,8.7-2.8,13.1-2.8V19.4z"/>
<defs>
	<filter id="Adobe_OpacityMaskFilter" filterUnits="userSpaceOnUse" x="62.8" y="5.4" width="216.6" height="124.5">
		<feColorMatrix  type="matrix" values="1 0 0 0 0  0 1 0 0 0  0 0 1 0 0  0 0 0 1 0"/>
	</filter>
</defs>
<mask maskUnits="userSpaceOnUse" x="62.8" y="5.4" width="216.6" height="124.5" id="gradient-mask_1_">
	
		<linearGradient id="SVGID_1_" gradientUnits="userSpaceOnUse" x1="-103.4892" y1="386.1429" x2="-102.4063" y2="386.1429" gradientTransform="matrix(1.224647e-14 115 200 -7.041719e-15 -77057.5156 11906.6777)">
		<stop  offset="0" style="stop-color:#000000"/>
		<stop  offset="1" style="stop-color:#000000;stop-opacity:0"/>
	</linearGradient>
	<rect x="62.8" y="5.4" class="st3" width="216.6" height="124.5"/>
</mask>
<rect id="light" x="62.8" y="5.4" class="st4" width="216.6" height="124.5"/>
</svg>
