<svg xmlns="http://www.w3.org/2000/svg" viewBox="0 0 256 256">
<!--! 
by Veli (Veromann) - https://github.com/velijv - https://twitter.com/velivelilev - https://veli.ee 
Copyright 2022 Veli.-->
  <defs>
    <linearGradient id="SVGID_1_" x1="128" x2="128" y1="103.5" y2="65.6244" gradientUnits="userSpaceOnUse">
      <stop offset="0" style="stop-color:currentColor"/>
      <stop offset=".5" style="stop-color:currentColor;stop-opacity:0"/>
    </linearGradient>
    <linearGradient id="SVGID_2_" x1="128" x2="128" y1="103.5" y2="18.1038" gradientUnits="userSpaceOnUse">
      <stop offset=".5" style="stop-color:currentColor"/>
      <stop offset="1" style="stop-color:currentColor;stop-opacity:0"/>
    </linearGradient>
    <linearGradient id="SVGID_3_" x1="127.95" x2="127.95" y1="122.1" y2="119" gradientUnits="userSpaceOnUse">
      <stop offset=".00000135" style="stop-color:#78909C"/>
      <stop offset="1" style="stop-color:#90A4AE"/>
    </linearGradient>
    <linearGradient id="SVGID_4_" x1="128" x2="128" y1="117.5" y2="103.5" gradientUnits="userSpaceOnUse">
      <stop offset=".00000109" style="stop-color:#ECEFF1"/>
      <stop offset=".5" style="stop-color:#CFD8DC"/>
      <stop offset="1" style="stop-color:#B0BEC5"/>
    </linearGradient>
    <linearGradient id="SVGID_5_" x1="128.05" x2="128.05" y1="103.5" y2="100.4" gradientUnits="userSpaceOnUse">
      <stop offset="0" style="stop-color:#B0BEC5"/>
      <stop offset="1" style="stop-color:#455A64"/>
    </linearGradient>
    <linearGradient id="SVGID_6_" x1="128" x2="128" y1="103.5" y2="109.7" gradientUnits="userSpaceOnUse">
      <stop offset=".00000193" style="stop-color:#ECEFF1;stop-opacity:0.5"/>
      <stop offset="1" style="stop-color:#ECEFF1"/>
    </linearGradient>
    <style>
      .st0{opacity:0.4;fill:url(#SVGID_1_);}
	.st1{opacity:0.2;fill:url(#SVGID_2_);}
	.st2{fill:#FFF200;}
	.st3{fill:var(--primary-text-color);}
	.st4{fill:url(#SVGID_3_);}
	.st5{fill:url(#SVGID_4_);}
	.st6{fill:url(#SVGID_5_);}
	.st9{fill:var(--primary-background-color);}
	.st11{fill:var(--primary-background-color);}
	.st13{fill:#ECEFF1;opacity:0.2;}
	.fa-secondary{
		opacity:0.4;		
	}
    </style>
  </defs>
  <path d="M16.4 65.6h223.2v37.9H16.4z" class="st0"/>
  <path d="M144 103.5v-3.1h-32v3.1h32zm98.7 12.4v1.6H144v1.6h-3.1v36.6h-25.8V119H112v-1.6H13.3v-1.6H144l98.7.1zM139.2 119h-22.3v3.1h22.3V119z" class="fa-primary"/>
  <path d="M254 103.5H2.1c-1.2 0-2.1 2.8-2.1 6.2 0 3.4 1 6.2 2.1 6.2v1.6h11.2v-1.6h229.4v1.6h11.2v-1.6c1.2 0 2.1-2.8 2.1-6.2 0-3.4-.9-6.2-2-6.2zm-114.8 8.6h-22.3c-1.7 0-3.1-1.4-3.1-3.1s1.4-3.1 3.1-3.1h22.3c1.7 0 3.1 1.4 3.1 3.1s-1.4 3.1-3.1 3.1zm-22.4 6.9h22.3v3.1h-22.3V119z" class="fa-secondary"/>
  <path d="M215.8 109.6H40.2c-1.7 0-3.1 1.4-3.1 3.1s1.4 3.1 3.1 3.1h175.7c1.7 0 3.1-1.4 3.1-3.1s-1.4-3.1-3.2-3.1z" class="st3" style="mix-blend-mode:multiply"/>
  <path d="M116.8 119h22.3v3.1h-22.3z" class="st4" style="opacity:0.2"/>
  <path d="M256 109.7c0 3.4-.9 6.2-2.1 6.2v1.6h-11.2v-1.6H13.3v1.6H2.1v-1.6c-1.1 0-2.1-2.8-2.1-6.2 0-3.4.9-6.2 2.1-6.2H254c1.1 0 2 2.8 2 6.2z" class="st5" style="mix-blend-mode:multiply"/>
  <path d="M216.7 103.5H41c-1.7 0-3.1 1.4-3.1 3.1s1.4 3.1 3.1 3.1h175.7c1.7 0 3.1-1.4 3.1-3.1s-1.3-3.1-3.1-3.1z" class="st13"/>
  <g id="logo">
    <path d="M139.2 105.9h-22.3c-1.7 0-3.1 1.4-3.1 3.1s1.4 3.1 3.1 3.1h22.3c1.7 0 3.1-1.4 3.1-3.1s-1.4-3.1-3.1-3.1z" class="st9"/>
    <path d="M135.9 107.4v3.2h-.4v-1.4H134v1.4h-.4v-3.2h.4v1.3h1.5v-1.3h.4zm-6.8-.1h-.4v3.2h.4v-3.2c.1.1 0 .1 0 0zm-6.6 2.8h-1.7v-1h1.5v-.4h-1.5v-.9h1.6v-.4h-2.1v3.2h2.1l.1-.5c.1.1 0 0 0 0zm1.2 0v-1h1.5v-.4h-1.5v-.9h1.6v-.4h-2.1v3.2h2.1v-.4l-1.6-.1zm2.8 0v-2.7h-.4v3.2h1.9v-.4l-1.5-.1zm12.6-2.7h-2.5v.4h1v2.8h.4v-2.8h1l.1-.4c.1 0 .1 0 0 0zm-6.6 1.4h-1v.4h.7v.8c-.2.1-.5.1-.7.1-.3 0-.6-.1-.8-.3-.3-.2-.4-.6-.4-.9 0-.6.5-1.1 1.1-1.2.3 0 .5.1.7.2h.1l.3-.3v-.1c-.3-.2-.7-.3-1-.3-.9 0-1.7.7-1.7 1.6v.1c0 .5.2 1 .6 1.3.3.3.7.4 1.1.4.2 0 .5 0 .7-.1.1 0 .3-.1.4-.2.1 0 .1-.1.1-.2V109c0-.1-.1-.2-.2-.2zm-13.1-1.4-1 1.4-.9-1.4h-.6l1.3 1.8v1.4h.4v-1.4l1.3-1.8h-.5z" class="st3"/>
  </g>
  <path d="M112.1 100.4h32v3.1h-32z" class="st6" style="opacity:0.2"/>
  <path d="M112 117.5h130.7v-1.6l-98.7-.1H13.3v1.6H112z" class="st11"/>
</svg>